<svg viewBox="0 0 24 24" fill="none" stroke="black" stroke-width="1.5" stroke-linecap="round" stroke-linejoin="round" xmlns="http://www.w3.org/2000/svg">
<rect x="3" y="1" width="18" height="22" rx="3" ry="3" fill="white" stroke="none"/>
<path d="M6 22a2 2 0 0 1 -2 -2v-16a2 2 0 0 1 2-2h12a2 2 0 0 1 2 2v4m0 9v3a2 2 0 0 1 -2 2h-3"/> 
<path d="M7 6h10" stroke-dasharray="1 2 4 2 3"/> 
<path d="M7 11h6" stroke-dasharray="3 2"/> 
<path d="M7 16h1"/> 
<path d="M11 17 l-1 4 4 -1l6-6a2 2 0 0 0 -3 -3l-6 6-1 4 4-1m-3 0l-1.5 1.5" fill="red" fill-rule="evenodd"/> 
</svg>